Coordinates
version=1
nRows=21
nColumns=24
inDegrees=yes

Units are S.I. units (second, meters, Newtons, ...)
If the header above contains a line with 'inDegrees', this indicates whether rotational values are in degrees (yes) or radians (no).

endheader
time	pelvis_tilt	pelvis_list	pelvis_rotation	pelvis_tx	pelvis_ty	pelvis_tz	hip_flexion_r	hip_adduction_r	hip_rotation_r	knee_angle_r	ankle_angle_r	subtalar_angle_r	mtp_angle_r	hip_flexion_l	hip_adduction_l	hip_rotation_l	knee_angle_l	ankle_angle_l	subtalar_angle_l	mtp_angle_l	lumbar_extension	lumbar_bending	lumbar_rotation
1.0	5.204564959104042	0.36551994253838405	0.8832024879921854	0.5898195159724097	1.0470209063131057	0.03557404752360871	2.898091156899442	0.32926375770178473	-3.3974402201534804	-20.736800171160233	6.364214332350123	-2.4479104298507814e-06	3.73297374439532e-11	12.612458992035988	-1.7389065955479748	-2.4112915501761187	-46.33832305842744	6.637381536298497	-2.1751569461738402e-06	-6.162674077541121e-16	-16.888081455036396	0.3912900254367213	-0.789782606437168
1.017	5.013017180454812	-0.7784575171198062	-1.1928384309633073	0.5839182416570162	1.040226605121858	0.04845277597970129	-10.358889213171619	2.5394227987724896	-0.11168996770039019	-7.713150562510496	13.119262417775516	-1.933130079583298e-06	3.753206976565676e-10	20.97623622133727	-3.257919304681599	-3.7677818352899313	-39.64525822725373	3.5010200738956425	-2.6996250340735296e-06	-6.14949238100054e-16	-17.461029338236973	1.1163529780169932	2.6877013198876805
1.033	5.533701962183514	-0.23154408242771507	1.2232056041071688	0.5978703047531505	1.035565093641721	0.02789234986664226	7.511514234936845	-0.6771309239390866	-5.907322790268159	-33.915752015144484	0.9957595040979106	-4.808082838765238e-06	6.408277448619248e-10	4.990699130941959	-1.3307778301725177	-2.1664325260353565	-36.3452160499335	3.4255191624857675	1.4021413524072807e-06	-1.8143463125663624e-15	-15.834985803144901	1.1121260440996277	-2.931447360768499
1.05	5.557559954189694	-0.5864404240826735	0.6884963352299788	0.6004396373313383	1.0546406606330587	0.061456232518065	-9.728166098039853	3.963566489546933	-2.3456913012030833	-20.87551348838372	8.441087631665642	5.551000093274993e-08	4.222532465802241e-10	28.73407426403154	-5.779684129347481	-7.88230185451623	-67.05597449085761	-2.7038159888769178	-5.3622733983975665e-06	-8.329820400168127e-16	-16.683223862062178	2.426960403235366	2.903277280291266
1.067	4.301742119866908	0.27307523703809444	2.071405645428812	0.5784984609321323	1.0514894848425287	0.071886779618245	-8.95588441400771	6.717914426660354	-4.940330072504251	24.58695704825704	11.766204415951977	-1.5839011621880235e-06	7.196155464785328e-10	25.16986485772258	-6.669233312085606	-11.380108386141018	-59.59932785484479	1.6701313464206908	-8.319229668211005e-06	-1.9385421449732376e-15	-17.42990832342995	4.065895417010367	3.7874636759438194
1.083	4.254315639483661	-1.9403343450530335	0.23936245327805317	0.5900754246691274	1.0366711827960846	0.08525115252295487	-22.025094252176775	8.783212481787553	0.6726170811354657	17.20382565385059	13.903121195607817	-1.1818679627132154e-07	-8.113534158718245e-10	32.92108187798271	-9.375191961192893	-11.339232742728564	-58.35449320354782	-5.6526340437536104	-4.148728914708865e-06	-1.8270836822058265e-15	-16.587322794009154	5.796093508764569	6.308053009853866
1.1	4.861093347025804	-2.3251818094013332	0.014555639400204656	0.5760624650925681	1.049836363988283	0.035936006367430766	-1.1224359858773116	3.475727395466696	-6.525964341621567	-13.261764415586322	8.668763099957145	-2.8009358796493634e-06	-8.85917457284246e-10	14.400974260633301	-4.69005077326284	-11.656949580911817	-18.53772132793601	0.4343876637858771	-8.28717926073595e-06	1.6917491135789393e-15	-16.98548985861564	2.4846527309405024	0.9633503928055407
1.117	4.366267034374515	-1.2405458513124747	-0.7242048780378015	0.584259214504302	1.029837545813323	0.017090132847322095	4.759779122776653	0.1637696608472563	-4.906249010358136	-19.29237690525951	6.426408820746804	-1.3146474089989613e-06	2.312678179950941e-10	3.493271588427273	-0.7887894573352741	-4.162901510712484	-16.302173972508385	2.2165849631557464	-1.8322561500175359e-06	-1.181602056889428e-15	-15.390367794031004	-0.23412097573722246	-2.252186292984738
1.133	4.792453097852686	-1.1834299061903204	0.6972396834210537	0.5967134725374487	1.0284673364989614	0.03185064648452333	3.22873511694152	1.5589228430457749	-2.0893153931744997	-27.427889256782485	4.5453932394669305	-1.7032536085234775e-06	-3.683025720701836e-10	5.865229493385636	-2.5592602762990992	-2.6206673744472875	-30.8877491600364	2.2441684938365363	1.914518845630094e-07	9.352946179988003e-16	-15.012869933068293	2.0310378930667663	-2.1608582638905514
1.15	4.533495400666009	-2.5447310664930987	-1.725334716148826	0.5931155814677942	1.022707942858512	0.04756848242716414	-12.537264643152099	3.957239330855848	-0.13975952371073064	-15.971665363536811	6.965231525259004	1.0502523290327553e-06	-8.418726127026914e-10	18.296636020793557	-4.885525218869692	-5.771574050982222	-28.330247963430175	-2.6910769430539663	-1.1928616656650943e-06	-3.656485292595583e-16	-15.603928391346388	2.3558541269449993	2.6877959960755957
1.167	5.43914599663032	-4.426832011300041	-1.245146360341611	0.5822228377345272	1.0384969062053424	0.028263473908924554	-3.898715568358469	3.4231851333315673	-2.93447959916943	-36.875970997616946	9.515122109875799	-2.167050237727783e-06	-4.4638904400529885e-10	12.575697879588532	-4.218324416675917	-5.885664032969706	-3.2337875317012696	-0.23564358076411773	-1.4329400106352412e-06	9.306041264464826e-16	-17.085645558930178	3.1587591413780887	0.13440618044262198
1.183	3.622496049864956	-4.5722185629848715	0.15483916949380383	0.5613541298755297	1.008085520495948	0.036018771114585534	-5.3700716163048785	8.073496943922114	2.079426334580373	23.163983845325095	16.599991405145342	1.3511247171128365e-06	3.2463154218944485e-10	-1.1005598526389946	-5.6004145610054685	-2.9964574193071845	17.402322875266872	4.643809721187411	-1.5206519253683078e-07	7.326120075750034e-16	-16.908627995700325	6.045256725804597	-0.2998565037476437
1.2	4.936576045414921	-7.450746664057833	-6.244208382278677	0.5824123978948574	1.0468874060693554	0.08651242402055592	-43.08103618085415	10.048693603787846	1.3983610760751664	-21.6046302008652	15.825173350036717	3.9614573680539164e-07	-3.79556082394564e-10	53.68500139274687	-12.64429552429289	-17.02222242542242	-19.185033656183357	-11.485875137442052	-7.203677978788943e-06	-1.0016275467495607e-15	-18.121700330682692	5.4973422976422155	13.691730489710023
1.217	4.2909582199926675	-2.836430375323048	-3.5781206502243426	0.5773868026070108	1.009398577580698	0.035124025020057986	-14.94721382453639	2.912747579785987	0.8953055290361678	-3.7759189084212212	8.877233895885105	2.658788136965506e-06	-5.833868730595235e-10	12.777109120381521	-3.3634347412848333	-4.263054893883885	-1.395125083162811	0.9243924639018367	-1.8251535432911037e-06	-1.7289302222688764e-15	-16.553806344493843	0.2211484193851314	2.5164364550427782
1.233	4.355745016788792	-8.194940667728062	-4.616607255614608	0.5833055406142802	1.0090128920824242	0.08164521229750525	-40.439004092285344	11.801817518329466	8.569183805640654	-3.1242653058192973	21.516612084116094	1.7012861764244706e-06	-4.428157880969025e-10	35.91398915253962	-12.50309472378034	-7.999457181115428	-6.173165765675134	-9.53706614851141	6.849179585444957e-07	-7.112726448513383e-16	-17.080083262571023	8.101714297076809	9.525144364748726
1.25	4.978906898378571	-4.112939950697948	-5.190128083105802	0.5878522131840728	1.014796891729275	0.05974867356175223	-31.913687294271327	5.24738163187784	5.484671921319493	-11.218329900084925	11.774290066105895	6.178248221640602e-06	-3.043701013174874e-10	31.852321484728808	-7.0804718247099	-6.590245564705908	-20.597513309924068	-5.094442655220661	-2.37577114997883e-06	-1.4428656607957148e-16	-17.146142273797526	1.3200899629410734	7.23125045988054
1.267	3.6284848349583565	-3.3607467611469906	-1.7007163573975466	0.576876384924528	0.9792059858704507	0.016885017504173323	-4.032686253739737	3.307785791138655	4.696741752635208	7.971892793170868	15.857875450238037	2.200422059482403e-06	2.029535106104943e-10	-9.990811004492524	-1.5581483759479036	7.2903106002142515	12.198645055039407	5.569272203078583	6.5082550844565255e-06	6.996832798196146e-16	-15.141411563730415	2.436423084695417	-3.500599643860511
1.283	4.952211737894253	-4.726120771930943	-4.240658623213166	0.5881519214287853	1.0319472212978102	0.027447104489497713	-11.910941831824664	1.2275404564010994	-0.11770018933772075	-48.42423345603816	13.45088800705614	-2.8959768808911463e-06	-1.3721038958911222e-09	20.683774874888538	-4.241741308064972	-3.6696247740140877	-12.818421651191617	-3.3451517442808	-2.6239277640602286e-06	-2.2731190919231223e-16	-16.21848944212776	1.0083175799023087	2.401205518597169
1.3	4.294230565035509	-6.209301965123702	-11.14469490012877	0.6015424958238804	1.0014311099084823	0.08399464120201544	-60.63444498367545	6.611546062943314	10.984269822004066	-21.284488957207788	14.273982037313457	9.599152100936581e-06	-1.5253669407439845e-10	57.960738728583806	-10.110520813064904	-10.400820999020343	-30.471494386657557	-17.6284049177701	-2.9576125447589797e-06	-1.3500861367504211e-15	-15.943076716648296	-0.21719686442300146	15.736368246411812
1.317	4.090758625147003	-2.8977226548604804	-4.742119660352291	0.5987351183752392	0.9970319816101113	0.04486016049642252	-22.161052441807826	2.7880630281440677	5.54460280535133	-17.046469397247158	8.400411333534214	4.498129016568713e-06	2.450192881317277e-10	19.08222071068992	-4.548012652360253	-3.6436512997742385	-22.663761751886526	-6.241307746169813	5.457473848994398e-07	-1.331673352763659e-15	-14.638531346473648	-0.1686944961674153	3.461784392871222
1.333	3.6964641664046405	-5.9322645261931175	-8.78898299679758	0.5918833732710947	0.997604095650039	0.07101467161268654	-48.10408994075243	8.08324396781424	11.533153092582557	-5.648795941708364	21.10947477232407	8.676452507626213e-06	2.4747457444269816e-11	41.15991096154184	-9.105293586246018	-7.368963166315922	-18.88427404322311	-11.367290540951238	-3.6080033734031405e-06	-2.0163995910118198e-16	-15.645316484948536	0.8758339847856855	11.026394917990762
